<svg xmlns="http://www.w3.org/2000/svg" viewBox="0 0 650 648" preserveAspectRatio="xMidYMid meet"><defs><clipPath id="__lottie_element_35"><rect width="650" height="648" x="0" y="0"></rect></clipPath><clipPath id="__lottie_element_37"><path d="M0,0 L1134,0 L1134,648 L0,648z"></path></clipPath></defs><g clip-path="url(#__lottie_element_35)"><g clip-path="url(#__lottie_element_37)" transform="matrix(1,0,0,1,-242,0)" opacity="1" style="display: block;"><g transform="matrix(1,0,0,1,479.708984375,353.1629943847656)" opacity="1" style="display: block;"><g opacity="1" transform="matrix(1,0,0,1,67.84600067138672,41.172000885009766)"><path fill="rgb(250,176,95)" fill-opacity="1" d=" M-65.55899810791016,-18.594999313354492 C-65.55899810791016,-18.594999313354492 -65.55899810791016,-1.6950000524520874 -65.55899810791016,-1.6950000524520874 C-65.55899810791016,9.51099967956543 -36.20899963378906,18.594999313354492 -0.004000000189989805,18.594999313354492 C36.20100021362305,18.594999313354492 65.5510025024414,9.51099967956543 65.5510025024414,-1.6950000524520874 C65.5510025024414,-1.6950000524520874 65.5510025024414,-18.594999313354492 65.5510025024414,-18.594999313354492 C65.55799865722656,-17.45400047302246 65.38800048828125,-15.590999603271484 64.21499633789062,-13.890999794006348 C63.25699996948242,-12.5 62.0369987487793,-11.814000129699707 61.35200119018555,-11.437999725341797 C54.86199951171875,-7.876999855041504 51.61600112915039,-6.0960001945495605 51.117000579833984,-5.914000034332275 C27.948999404907227,2.5360000133514404 -5.425000190734863,1.6260000467300415 -5.425000190734863,1.6260000467300415 C-16.913999557495117,1.312000036239624 -23.65999984741211,0.32499998807907104 -32.44499969482422,-0.9610000252723694 C-32.44499969482422,-0.9610000252723694 -44.28900146484375,-2.693000078201294 -58.0629997253418,-9.237000465393066 C-59.775001525878906,-10.050999641418457 -62.70800018310547,-11.581000328063965 -64.38999938964844,-14.781000137329102 C-65.16300201416016,-16.25200080871582 -65.44400024414062,-17.64299964904785 -65.55899810791016,-18.594999313354492z"></path><path stroke-linecap="butt" stroke-linejoin="miter" fill-opacity="0" stroke-miterlimit="10" stroke="rgb(52,90,121)" stroke-opacity="1" stroke-width="0.915" d=" M-65.55899810791016,-18.594999313354492 C-65.55899810791016,-18.594999313354492 -65.55899810791016,-1.6950000524520874 -65.55899810791016,-1.6950000524520874 C-65.55899810791016,9.51099967956543 -36.20899963378906,18.594999313354492 -0.004000000189989805,18.594999313354492 C36.20100021362305,18.594999313354492 65.5510025024414,9.51099967956543 65.5510025024414,-1.6950000524520874 C65.5510025024414,-1.6950000524520874 65.5510025024414,-18.594999313354492 65.5510025024414,-18.594999313354492 C65.55799865722656,-17.45400047302246 65.38800048828125,-15.590999603271484 64.21499633789062,-13.890999794006348 C63.25699996948242,-12.5 62.0369987487793,-11.814000129699707 61.35200119018555,-11.437999725341797 C54.86199951171875,-7.876999855041504 51.61600112915039,-6.0960001945495605 51.117000579833984,-5.914000034332275 C27.948999404907227,2.5360000133514404 -5.425000190734863,1.6260000467300415 -5.425000190734863,1.6260000467300415 C-16.913999557495117,1.312000036239624 -23.65999984741211,0.32499998807907104 -32.44499969482422,-0.9610000252723694 C-32.44499969482422,-0.9610000252723694 -44.28900146484375,-2.693000078201294 -58.0629997253418,-9.237000465393066 C-59.775001525878906,-10.050999641418457 -62.70800018310547,-11.581000328063965 -64.38999938964844,-14.781000137329102 C-65.16300201416016,-16.25200080871582 -65.44400024414062,-17.64299964904785 -65.55899810791016,-18.594999313354492z"></path></g><g opacity="1" transform="matrix(1,0,0,1,67.84300231933594,22.57699966430664)"><path fill="rgb(254,209,136)" fill-opacity="1" d=" M65.55500030517578,0 C65.55500030517578,11.206000328063965 36.20500183105469,20.290000915527344 0,20.290000915527344 C-36.20500183105469,20.290000915527344 -65.55500030517578,11.206000328063965 -65.55500030517578,0 C-65.55500030517578,-11.206000328063965 -36.20500183105469,-20.290000915527344 0,-20.290000915527344 C36.20500183105469,-20.290000915527344 65.55500030517578,-11.206000328063965 65.55500030517578,0z"></path><path stroke-linecap="butt" stroke-linejoin="miter" fill-opacity="0" stroke-miterlimit="10" stroke="rgb(52,90,121)" stroke-opacity="1" stroke-width="0.915" d=" M65.55500030517578,0 C65.55500030517578,11.206000328063965 36.20500183105469,20.290000915527344 0,20.290000915527344 C-36.20500183105469,20.290000915527344 -65.55500030517578,11.206000328063965 -65.55500030517578,0 C-65.55500030517578,-11.206000328063965 -36.20500183105469,-20.290000915527344 0,-20.290000915527344 C36.20500183105469,-20.290000915527344 65.55500030517578,-11.206000328063965 65.55500030517578,0z"></path></g><g opacity="1" transform="matrix(1,0,0,1,64.57099914550781,21.99799919128418)"><path fill="rgb(52,90,121)" fill-opacity="1" d=" M13.145000457763672,-12.222999572753906 C13.710000038146973,-12.081000328063965 13.847999572753906,-11.668000221252441 13.454999923706055,-11.293999671936035 C13.454999923706055,-11.293999671936035 12.23900032043457,-10.156999588012695 12.23900032043457,-10.156999588012695 C14.890999794006348,-9.32699966430664 16.82900047302246,-7.98199987411499 17.804000854492188,-6.295000076293945 C18.017000198364258,-6.071000099182129 17.97800064086914,-5.76800012588501 17.698999404907227,-5.493000030517578 C17.26099967956543,-5.10099983215332 16.424999237060547,-4.909999847412109 15.831000328063965,-5.065999984741211 C15.526000022888184,-5.124000072479248 15.317999839782715,-5.263999938964844 15.260000228881836,-5.451000213623047 C14.51099967956543,-6.915999889373779 12.944000244140625,-8.105999946594238 10.755000114440918,-8.873000144958496 C10.755000114440918,-8.873000144958496 2.255000114440918,-0.9490000009536743 2.255000114440918,-0.9490000009536743 C7.8429999351501465,1.565999984741211 8.887999534606934,3.8399999141693115 5.906000137329102,6.630000114440918 C2.681999921798706,9.635000228881836 -3.434000015258789,10.815999984741211 -8.986000061035156,9.609999656677246 C-8.986000061035156,9.609999656677246 -11.35099983215332,11.814000129699707 -11.35099983215332,11.814000129699707 C-11.74899959564209,12.1850004196167 -12.529999732971191,12.37399959564209 -13.095999717712402,12.234999656677246 C-13.66100025177002,12.097000122070312 -13.795999526977539,11.684000015258789 -13.39799976348877,11.312999725341797 C-13.39799976348877,11.312999725341797 -11.001999855041504,9.074000358581543 -11.001999855041504,9.074000358581543 C-14.42199993133545,8.01099967956543 -16.802000045776367,6.206999778747559 -17.766000747680664,3.9509999752044678 C-18.016000747680664,3.6029999256134033 -17.6560001373291,3.125999927520752 -16.961999893188477,2.88700008392334 C-16.267000198364258,2.6480000019073486 -15.501999855041504,2.7360000610351562 -15.251999855041504,3.0850000381469727 C-15.229999542236328,3.115999937057495 -15.211999893188477,3.1489999294281006 -15.199999809265137,3.183000087738037 C-14.496000289916992,5.204999923706055 -12.501999855041504,6.843999862670898 -9.548999786376953,7.824999809265137 C-9.548999786376953,7.824999809265137 -0.8999999761581421,-0.24199999868869781 -0.8999999761581421,-0.24199999868869781 C-6.38700008392334,-2.7860000133514404 -7.368000030517578,-4.974999904632568 -4.39300012588501,-7.809000015258789 C-1.4190000295639038,-10.642999649047852 4.809000015258789,-11.923999786376953 10.15999984741211,-10.718000411987305 C10.15999984741211,-10.718000411987305 11.312999725341797,-11.795000076293945 11.312999725341797,-11.795000076293945 C11.659000396728516,-12.163999557495117 12.404999732971191,-12.37399959564209 12.979999542236328,-12.265999794006348 C13.038000106811523,-12.255000114440918 13.093000411987305,-12.241000175476074 13.145000457763672,-12.222999572753906z M0.6669999957084656,-1.6929999589920044 C0.6669999957084656,-1.6929999589920044 8.949999809265137,-9.423999786376953 8.949999809265137,-9.423999786376953 C4.703999996185303,-10.395000457763672 0.1899999976158142,-9.428999900817871 -2.000999927520752,-7.385000228881836 C-4.057000160217285,-5.461999893188477 -3.9600000381469727,-3.931999921798706 0.6669999957084656,-1.6929999589920044z M0.7269999980926514,0.47600001096725464 C0.7269999980926514,0.47600001096725464 -7.645999908447266,8.295000076293945 -7.645999908447266,8.295000076293945 C-3.2790000438690186,9.317999839782715 1.2990000247955322,8.340999603271484 3.609999895095825,6.183000087738037 C5.681000232696533,4.254000186920166 5.451000213623047,2.694000005722046 0.7139999866485596,0.49799999594688416 C0.7139999866485596,0.49799999594688416 0.7269999980926514,0.47600001096725464 0.7269999980926514,0.47600001096725464z"></path></g><g opacity="1" transform="matrix(1,0,0,1,31.149999618530273,21.990999221801758)"><path stroke-linecap="butt" stroke-linejoin="miter" fill-opacity="0" stroke-miterlimit="10" stroke="rgb(242,249,252)" stroke-opacity="1" stroke-width="0.915" d=" M6.644999980926514,12.54699993133545 C-4.5980000495910645,9.717000007629395 -11.781999588012695,5.4029998779296875 -11.781999588012695,0.5680000185966492 C-11.781999588012695,-4.9679999351501465 -2.364000082015991,-9.822999954223633 11.781999588012695,-12.54699993133545"></path></g><g opacity="1" transform="matrix(1,0,0,1,101.02400207519531,23.17799949645996)"><path stroke-linecap="butt" stroke-linejoin="miter" fill-opacity="0" stroke-miterlimit="10" stroke="rgb(242,249,252)" stroke-opacity="1" stroke-width="0.915" d=" M-8.211000442504883,-14.222000122070312 C7.435999870300293,-11.618000030517578 18.073999404907227,-6.502999782562256 18.073999404907227,-0.6200000047683716 C18.073999404907227,6.432000160217285 2.7960000038146973,12.378000259399414 -18.073999404907227,14.222000122070312"></path></g></g><g transform="matrix(1,0,0,1,476.708984375,329.1629943847656)" opacity="1" style="display: block;"><g opacity="1" transform="matrix(1,0,0,1,67.84600067138672,41.172000885009766)"><path fill="rgb(250,176,95)" fill-opacity="1" d=" M-65.55899810791016,-18.594999313354492 C-65.55899810791016,-18.594999313354492 -65.55899810791016,-1.6950000524520874 -65.55899810791016,-1.6950000524520874 C-65.55899810791016,9.51099967956543 -36.20899963378906,18.594999313354492 -0.004000000189989805,18.594999313354492 C36.20100021362305,18.594999313354492 65.5510025024414,9.51099967956543 65.5510025024414,-1.6950000524520874 C65.5510025024414,-1.6950000524520874 65.5510025024414,-18.594999313354492 65.5510025024414,-18.594999313354492 C65.55799865722656,-17.45400047302246 65.38800048828125,-15.590999603271484 64.21499633789062,-13.890999794006348 C63.25699996948242,-12.5 62.0369987487793,-11.814000129699707 61.35200119018555,-11.437999725341797 C54.86199951171875,-7.876999855041504 51.61600112915039,-6.0960001945495605 51.117000579833984,-5.914000034332275 C27.948999404907227,2.5360000133514404 -5.425000190734863,1.6260000467300415 -5.425000190734863,1.6260000467300415 C-16.913999557495117,1.312000036239624 -23.65999984741211,0.32499998807907104 -32.44499969482422,-0.9610000252723694 C-32.44499969482422,-0.9610000252723694 -44.28900146484375,-2.693000078201294 -58.0629997253418,-9.237000465393066 C-59.775001525878906,-10.050999641418457 -62.70800018310547,-11.581000328063965 -64.38999938964844,-14.781000137329102 C-65.16300201416016,-16.25200080871582 -65.44400024414062,-17.64299964904785 -65.55899810791016,-18.594999313354492z"></path><path stroke-linecap="butt" stroke-linejoin="miter" fill-opacity="0" stroke-miterlimit="10" stroke="rgb(52,90,121)" stroke-opacity="1" stroke-width="0.915" d=" M-65.55899810791016,-18.594999313354492 C-65.55899810791016,-18.594999313354492 -65.55899810791016,-1.6950000524520874 -65.55899810791016,-1.6950000524520874 C-65.55899810791016,9.51099967956543 -36.20899963378906,18.594999313354492 -0.004000000189989805,18.594999313354492 C36.20100021362305,18.594999313354492 65.5510025024414,9.51099967956543 65.5510025024414,-1.6950000524520874 C65.5510025024414,-1.6950000524520874 65.5510025024414,-18.594999313354492 65.5510025024414,-18.594999313354492 C65.55799865722656,-17.45400047302246 65.38800048828125,-15.590999603271484 64.21499633789062,-13.890999794006348 C63.25699996948242,-12.5 62.0369987487793,-11.814000129699707 61.35200119018555,-11.437999725341797 C54.86199951171875,-7.876999855041504 51.61600112915039,-6.0960001945495605 51.117000579833984,-5.914000034332275 C27.948999404907227,2.5360000133514404 -5.425000190734863,1.6260000467300415 -5.425000190734863,1.6260000467300415 C-16.913999557495117,1.312000036239624 -23.65999984741211,0.32499998807907104 -32.44499969482422,-0.9610000252723694 C-32.44499969482422,-0.9610000252723694 -44.28900146484375,-2.693000078201294 -58.0629997253418,-9.237000465393066 C-59.775001525878906,-10.050999641418457 -62.70800018310547,-11.581000328063965 -64.38999938964844,-14.781000137329102 C-65.16300201416016,-16.25200080871582 -65.44400024414062,-17.64299964904785 -65.55899810791016,-18.594999313354492z"></path></g><g opacity="1" transform="matrix(1,0,0,1,67.84300231933594,22.57699966430664)"><path fill="rgb(254,209,136)" fill-opacity="1" d=" M65.55500030517578,0 C65.55500030517578,11.206000328063965 36.20500183105469,20.290000915527344 0,20.290000915527344 C-36.20500183105469,20.290000915527344 -65.55500030517578,11.206000328063965 -65.55500030517578,0 C-65.55500030517578,-11.206000328063965 -36.20500183105469,-20.290000915527344 0,-20.290000915527344 C36.20500183105469,-20.290000915527344 65.55500030517578,-11.206000328063965 65.55500030517578,0z"></path><path stroke-linecap="butt" stroke-linejoin="miter" fill-opacity="0" stroke-miterlimit="10" stroke="rgb(52,90,121)" stroke-opacity="1" stroke-width="0.915" d=" M65.55500030517578,0 C65.55500030517578,11.206000328063965 36.20500183105469,20.290000915527344 0,20.290000915527344 C-36.20500183105469,20.290000915527344 -65.55500030517578,11.206000328063965 -65.55500030517578,0 C-65.55500030517578,-11.206000328063965 -36.20500183105469,-20.290000915527344 0,-20.290000915527344 C36.20500183105469,-20.290000915527344 65.55500030517578,-11.206000328063965 65.55500030517578,0z"></path></g><g opacity="1" transform="matrix(1,0,0,1,64.57099914550781,21.99799919128418)"><path fill="rgb(52,90,121)" fill-opacity="1" d=" M13.145000457763672,-12.222999572753906 C13.710000038146973,-12.081000328063965 13.847999572753906,-11.668000221252441 13.454999923706055,-11.293999671936035 C13.454999923706055,-11.293999671936035 12.23900032043457,-10.156999588012695 12.23900032043457,-10.156999588012695 C14.890999794006348,-9.32699966430664 16.82900047302246,-7.98199987411499 17.804000854492188,-6.295000076293945 C18.017000198364258,-6.071000099182129 17.97800064086914,-5.76800012588501 17.698999404907227,-5.493000030517578 C17.26099967956543,-5.10099983215332 16.424999237060547,-4.909999847412109 15.831000328063965,-5.065999984741211 C15.526000022888184,-5.124000072479248 15.317999839782715,-5.263999938964844 15.260000228881836,-5.451000213623047 C14.51099967956543,-6.915999889373779 12.944000244140625,-8.105999946594238 10.755000114440918,-8.873000144958496 C10.755000114440918,-8.873000144958496 2.255000114440918,-0.9490000009536743 2.255000114440918,-0.9490000009536743 C7.8429999351501465,1.565999984741211 8.887999534606934,3.8399999141693115 5.906000137329102,6.630000114440918 C2.681999921798706,9.635000228881836 -3.434000015258789,10.815999984741211 -8.986000061035156,9.609999656677246 C-8.986000061035156,9.609999656677246 -11.35099983215332,11.814000129699707 -11.35099983215332,11.814000129699707 C-11.74899959564209,12.1850004196167 -12.529999732971191,12.37399959564209 -13.095999717712402,12.234999656677246 C-13.66100025177002,12.097000122070312 -13.795999526977539,11.684000015258789 -13.39799976348877,11.312999725341797 C-13.39799976348877,11.312999725341797 -11.001999855041504,9.074000358581543 -11.001999855041504,9.074000358581543 C-14.42199993133545,8.01099967956543 -16.802000045776367,6.206999778747559 -17.766000747680664,3.9509999752044678 C-18.016000747680664,3.6029999256134033 -17.6560001373291,3.125999927520752 -16.961999893188477,2.88700008392334 C-16.267000198364258,2.6480000019073486 -15.501999855041504,2.7360000610351562 -15.251999855041504,3.0850000381469727 C-15.229999542236328,3.115999937057495 -15.211999893188477,3.1489999294281006 -15.199999809265137,3.183000087738037 C-14.496000289916992,5.204999923706055 -12.501999855041504,6.843999862670898 -9.548999786376953,7.824999809265137 C-9.548999786376953,7.824999809265137 -0.8999999761581421,-0.24199999868869781 -0.8999999761581421,-0.24199999868869781 C-6.38700008392334,-2.7860000133514404 -7.368000030517578,-4.974999904632568 -4.39300012588501,-7.809000015258789 C-1.4190000295639038,-10.642999649047852 4.809000015258789,-11.923999786376953 10.15999984741211,-10.718000411987305 C10.15999984741211,-10.718000411987305 11.312999725341797,-11.795000076293945 11.312999725341797,-11.795000076293945 C11.659000396728516,-12.163999557495117 12.404999732971191,-12.37399959564209 12.979999542236328,-12.265999794006348 C13.038000106811523,-12.255000114440918 13.093000411987305,-12.241000175476074 13.145000457763672,-12.222999572753906z M0.6669999957084656,-1.6929999589920044 C0.6669999957084656,-1.6929999589920044 8.949999809265137,-9.423999786376953 8.949999809265137,-9.423999786376953 C4.703999996185303,-10.395000457763672 0.1899999976158142,-9.428999900817871 -2.000999927520752,-7.385000228881836 C-4.057000160217285,-5.461999893188477 -3.9600000381469727,-3.931999921798706 0.6669999957084656,-1.6929999589920044z M0.7269999980926514,0.47600001096725464 C0.7269999980926514,0.47600001096725464 -7.645999908447266,8.295000076293945 -7.645999908447266,8.295000076293945 C-3.2790000438690186,9.317999839782715 1.2990000247955322,8.340999603271484 3.609999895095825,6.183000087738037 C5.681000232696533,4.254000186920166 5.451000213623047,2.694000005722046 0.7139999866485596,0.49799999594688416 C0.7139999866485596,0.49799999594688416 0.7269999980926514,0.47600001096725464 0.7269999980926514,0.47600001096725464z"></path></g><g opacity="1" transform="matrix(1,0,0,1,31.149999618530273,21.990999221801758)"><path stroke-linecap="butt" stroke-linejoin="miter" fill-opacity="0" stroke-miterlimit="10" stroke="rgb(242,249,252)" stroke-opacity="1" stroke-width="0.915" d=" M6.644999980926514,12.54699993133545 C-4.5980000495910645,9.717000007629395 -11.781999588012695,5.4029998779296875 -11.781999588012695,0.5680000185966492 C-11.781999588012695,-4.9679999351501465 -2.364000082015991,-9.822999954223633 11.781999588012695,-12.54699993133545"></path></g><g opacity="1" transform="matrix(1,0,0,1,101.02400207519531,23.17799949645996)"><path stroke-linecap="butt" stroke-linejoin="miter" fill-opacity="0" stroke-miterlimit="10" stroke="rgb(242,249,252)" stroke-opacity="1" stroke-width="0.915" d=" M-8.211000442504883,-14.222000122070312 C7.435999870300293,-11.618000030517578 18.073999404907227,-6.502999782562256 18.073999404907227,-0.6200000047683716 C18.073999404907227,6.432000160217285 2.7960000038146973,12.378000259399414 -18.073999404907227,14.222000122070312"></path></g></g><g transform="matrix(1,0,0,1,480.708984375,302.1629943847656)" opacity="1" style="display: block;"><g opacity="1" transform="matrix(1,0,0,1,67.84600067138672,41.172000885009766)"><path fill="rgb(250,176,95)" fill-opacity="1" d=" M-65.55899810791016,-18.594999313354492 C-65.55899810791016,-18.594999313354492 -65.55899810791016,-1.6950000524520874 -65.55899810791016,-1.6950000524520874 C-65.55899810791016,9.51099967956543 -36.20899963378906,18.594999313354492 -0.004000000189989805,18.594999313354492 C36.20100021362305,18.594999313354492 65.5510025024414,9.51099967956543 65.5510025024414,-1.6950000524520874 C65.5510025024414,-1.6950000524520874 65.5510025024414,-18.594999313354492 65.5510025024414,-18.594999313354492 C65.55799865722656,-17.45400047302246 65.38800048828125,-15.590999603271484 64.21499633789062,-13.890999794006348 C63.25699996948242,-12.5 62.0369987487793,-11.814000129699707 61.35200119018555,-11.437999725341797 C54.86199951171875,-7.876999855041504 51.61600112915039,-6.0960001945495605 51.117000579833984,-5.914000034332275 C27.948999404907227,2.5360000133514404 -5.425000190734863,1.6260000467300415 -5.425000190734863,1.6260000467300415 C-16.913999557495117,1.312000036239624 -23.65999984741211,0.32499998807907104 -32.44499969482422,-0.9610000252723694 C-32.44499969482422,-0.9610000252723694 -44.28900146484375,-2.693000078201294 -58.0629997253418,-9.237000465393066 C-59.775001525878906,-10.050999641418457 -62.70800018310547,-11.581000328063965 -64.38999938964844,-14.781000137329102 C-65.16300201416016,-16.25200080871582 -65.44400024414062,-17.64299964904785 -65.55899810791016,-18.594999313354492z"></path><path stroke-linecap="butt" stroke-linejoin="miter" fill-opacity="0" stroke-miterlimit="10" stroke="rgb(52,90,121)" stroke-opacity="1" stroke-width="0.915" d=" M-65.55899810791016,-18.594999313354492 C-65.55899810791016,-18.594999313354492 -65.55899810791016,-1.6950000524520874 -65.55899810791016,-1.6950000524520874 C-65.55899810791016,9.51099967956543 -36.20899963378906,18.594999313354492 -0.004000000189989805,18.594999313354492 C36.20100021362305,18.594999313354492 65.5510025024414,9.51099967956543 65.5510025024414,-1.6950000524520874 C65.5510025024414,-1.6950000524520874 65.5510025024414,-18.594999313354492 65.5510025024414,-18.594999313354492 C65.55799865722656,-17.45400047302246 65.38800048828125,-15.590999603271484 64.21499633789062,-13.890999794006348 C63.25699996948242,-12.5 62.0369987487793,-11.814000129699707 61.35200119018555,-11.437999725341797 C54.86199951171875,-7.876999855041504 51.61600112915039,-6.0960001945495605 51.117000579833984,-5.914000034332275 C27.948999404907227,2.5360000133514404 -5.425000190734863,1.6260000467300415 -5.425000190734863,1.6260000467300415 C-16.913999557495117,1.312000036239624 -23.65999984741211,0.32499998807907104 -32.44499969482422,-0.9610000252723694 C-32.44499969482422,-0.9610000252723694 -44.28900146484375,-2.693000078201294 -58.0629997253418,-9.237000465393066 C-59.775001525878906,-10.050999641418457 -62.70800018310547,-11.581000328063965 -64.38999938964844,-14.781000137329102 C-65.16300201416016,-16.25200080871582 -65.44400024414062,-17.64299964904785 -65.55899810791016,-18.594999313354492z"></path></g><g opacity="1" transform="matrix(1,0,0,1,67.84300231933594,22.57699966430664)"><path fill="rgb(254,209,136)" fill-opacity="1" d=" M65.55500030517578,0 C65.55500030517578,11.206000328063965 36.20500183105469,20.290000915527344 0,20.290000915527344 C-36.20500183105469,20.290000915527344 -65.55500030517578,11.206000328063965 -65.55500030517578,0 C-65.55500030517578,-11.206000328063965 -36.20500183105469,-20.290000915527344 0,-20.290000915527344 C36.20500183105469,-20.290000915527344 65.55500030517578,-11.206000328063965 65.55500030517578,0z"></path><path stroke-linecap="butt" stroke-linejoin="miter" fill-opacity="0" stroke-miterlimit="10" stroke="rgb(52,90,121)" stroke-opacity="1" stroke-width="0.915" d=" M65.55500030517578,0 C65.55500030517578,11.206000328063965 36.20500183105469,20.290000915527344 0,20.290000915527344 C-36.20500183105469,20.290000915527344 -65.55500030517578,11.206000328063965 -65.55500030517578,0 C-65.55500030517578,-11.206000328063965 -36.20500183105469,-20.290000915527344 0,-20.290000915527344 C36.20500183105469,-20.290000915527344 65.55500030517578,-11.206000328063965 65.55500030517578,0z"></path></g><g opacity="1" transform="matrix(1,0,0,1,64.57099914550781,21.99799919128418)"><path fill="rgb(52,90,121)" fill-opacity="1" d=" M13.145000457763672,-12.222999572753906 C13.710000038146973,-12.081000328063965 13.847999572753906,-11.668000221252441 13.454999923706055,-11.293999671936035 C13.454999923706055,-11.293999671936035 12.23900032043457,-10.156999588012695 12.23900032043457,-10.156999588012695 C14.890999794006348,-9.32699966430664 16.82900047302246,-7.98199987411499 17.804000854492188,-6.295000076293945 C18.017000198364258,-6.071000099182129 17.97800064086914,-5.76800012588501 17.698999404907227,-5.493000030517578 C17.26099967956543,-5.10099983215332 16.424999237060547,-4.909999847412109 15.831000328063965,-5.065999984741211 C15.526000022888184,-5.124000072479248 15.317999839782715,-5.263999938964844 15.260000228881836,-5.451000213623047 C14.51099967956543,-6.915999889373779 12.944000244140625,-8.105999946594238 10.755000114440918,-8.873000144958496 C10.755000114440918,-8.873000144958496 2.255000114440918,-0.9490000009536743 2.255000114440918,-0.9490000009536743 C7.8429999351501465,1.565999984741211 8.887999534606934,3.8399999141693115 5.906000137329102,6.630000114440918 C2.681999921798706,9.635000228881836 -3.434000015258789,10.815999984741211 -8.986000061035156,9.609999656677246 C-8.986000061035156,9.609999656677246 -11.35099983215332,11.814000129699707 -11.35099983215332,11.814000129699707 C-11.74899959564209,12.1850004196167 -12.529999732971191,12.37399959564209 -13.095999717712402,12.234999656677246 C-13.66100025177002,12.097000122070312 -13.795999526977539,11.684000015258789 -13.39799976348877,11.312999725341797 C-13.39799976348877,11.312999725341797 -11.001999855041504,9.074000358581543 -11.001999855041504,9.074000358581543 C-14.42199993133545,8.01099967956543 -16.802000045776367,6.206999778747559 -17.766000747680664,3.9509999752044678 C-18.016000747680664,3.6029999256134033 -17.6560001373291,3.125999927520752 -16.961999893188477,2.88700008392334 C-16.267000198364258,2.6480000019073486 -15.501999855041504,2.7360000610351562 -15.251999855041504,3.0850000381469727 C-15.229999542236328,3.115999937057495 -15.211999893188477,3.1489999294281006 -15.199999809265137,3.183000087738037 C-14.496000289916992,5.204999923706055 -12.501999855041504,6.843999862670898 -9.548999786376953,7.824999809265137 C-9.548999786376953,7.824999809265137 -0.8999999761581421,-0.24199999868869781 -0.8999999761581421,-0.24199999868869781 C-6.38700008392334,-2.7860000133514404 -7.368000030517578,-4.974999904632568 -4.39300012588501,-7.809000015258789 C-1.4190000295639038,-10.642999649047852 4.809000015258789,-11.923999786376953 10.15999984741211,-10.718000411987305 C10.15999984741211,-10.718000411987305 11.312999725341797,-11.795000076293945 11.312999725341797,-11.795000076293945 C11.659000396728516,-12.163999557495117 12.404999732971191,-12.37399959564209 12.979999542236328,-12.265999794006348 C13.038000106811523,-12.255000114440918 13.093000411987305,-12.241000175476074 13.145000457763672,-12.222999572753906z M0.6669999957084656,-1.6929999589920044 C0.6669999957084656,-1.6929999589920044 8.949999809265137,-9.423999786376953 8.949999809265137,-9.423999786376953 C4.703999996185303,-10.395000457763672 0.1899999976158142,-9.428999900817871 -2.000999927520752,-7.385000228881836 C-4.057000160217285,-5.461999893188477 -3.9600000381469727,-3.931999921798706 0.6669999957084656,-1.6929999589920044z M0.7269999980926514,0.47600001096725464 C0.7269999980926514,0.47600001096725464 -7.645999908447266,8.295000076293945 -7.645999908447266,8.295000076293945 C-3.2790000438690186,9.317999839782715 1.2990000247955322,8.340999603271484 3.609999895095825,6.183000087738037 C5.681000232696533,4.254000186920166 5.451000213623047,2.694000005722046 0.7139999866485596,0.49799999594688416 C0.7139999866485596,0.49799999594688416 0.7269999980926514,0.47600001096725464 0.7269999980926514,0.47600001096725464z"></path></g><g opacity="1" transform="matrix(1,0,0,1,31.149999618530273,21.990999221801758)"><path stroke-linecap="butt" stroke-linejoin="miter" fill-opacity="0" stroke-miterlimit="10" stroke="rgb(242,249,252)" stroke-opacity="1" stroke-width="0.915" d=" M6.644999980926514,12.54699993133545 C-4.5980000495910645,9.717000007629395 -11.781999588012695,5.4029998779296875 -11.781999588012695,0.5680000185966492 C-11.781999588012695,-4.9679999351501465 -2.364000082015991,-9.822999954223633 11.781999588012695,-12.54699993133545"></path></g><g opacity="1" transform="matrix(1,0,0,1,101.02400207519531,23.17799949645996)"><path stroke-linecap="butt" stroke-linejoin="miter" fill-opacity="0" stroke-miterlimit="10" stroke="rgb(242,249,252)" stroke-opacity="1" stroke-width="0.915" d=" M-8.211000442504883,-14.222000122070312 C7.435999870300293,-11.618000030517578 18.073999404907227,-6.502999782562256 18.073999404907227,-0.6200000047683716 C18.073999404907227,6.432000160217285 2.7960000038146973,12.378000259399414 -18.073999404907227,14.222000122070312"></path></g></g><g transform="matrix(1,0,0,1,469.708984375,278.1629943847656)" opacity="1" style="display: block;"><g opacity="1" transform="matrix(1,0,0,1,67.84600067138672,41.172000885009766)"><path fill="rgb(250,176,95)" fill-opacity="1" d=" M-65.55899810791016,-18.594999313354492 C-65.55899810791016,-18.594999313354492 -65.55899810791016,-1.6950000524520874 -65.55899810791016,-1.6950000524520874 C-65.55899810791016,9.51099967956543 -36.20899963378906,18.594999313354492 -0.004000000189989805,18.594999313354492 C36.20100021362305,18.594999313354492 65.5510025024414,9.51099967956543 65.5510025024414,-1.6950000524520874 C65.5510025024414,-1.6950000524520874 65.5510025024414,-18.594999313354492 65.5510025024414,-18.594999313354492 C65.55799865722656,-17.45400047302246 65.38800048828125,-15.590999603271484 64.21499633789062,-13.890999794006348 C63.25699996948242,-12.5 62.0369987487793,-11.814000129699707 61.35200119018555,-11.437999725341797 C54.86199951171875,-7.876999855041504 51.61600112915039,-6.0960001945495605 51.117000579833984,-5.914000034332275 C27.948999404907227,2.5360000133514404 -5.425000190734863,1.6260000467300415 -5.425000190734863,1.6260000467300415 C-16.913999557495117,1.312000036239624 -23.65999984741211,0.32499998807907104 -32.44499969482422,-0.9610000252723694 C-32.44499969482422,-0.9610000252723694 -44.28900146484375,-2.693000078201294 -58.0629997253418,-9.237000465393066 C-59.775001525878906,-10.050999641418457 -62.70800018310547,-11.581000328063965 -64.38999938964844,-14.781000137329102 C-65.16300201416016,-16.25200080871582 -65.44400024414062,-17.64299964904785 -65.55899810791016,-18.594999313354492z"></path><path stroke-linecap="butt" stroke-linejoin="miter" fill-opacity="0" stroke-miterlimit="10" stroke="rgb(52,90,121)" stroke-opacity="1" stroke-width="0.915" d=" M-65.55899810791016,-18.594999313354492 C-65.55899810791016,-18.594999313354492 -65.55899810791016,-1.6950000524520874 -65.55899810791016,-1.6950000524520874 C-65.55899810791016,9.51099967956543 -36.20899963378906,18.594999313354492 -0.004000000189989805,18.594999313354492 C36.20100021362305,18.594999313354492 65.5510025024414,9.51099967956543 65.5510025024414,-1.6950000524520874 C65.5510025024414,-1.6950000524520874 65.5510025024414,-18.594999313354492 65.5510025024414,-18.594999313354492 C65.55799865722656,-17.45400047302246 65.38800048828125,-15.590999603271484 64.21499633789062,-13.890999794006348 C63.25699996948242,-12.5 62.0369987487793,-11.814000129699707 61.35200119018555,-11.437999725341797 C54.86199951171875,-7.876999855041504 51.61600112915039,-6.0960001945495605 51.117000579833984,-5.914000034332275 C27.948999404907227,2.5360000133514404 -5.425000190734863,1.6260000467300415 -5.425000190734863,1.6260000467300415 C-16.913999557495117,1.312000036239624 -23.65999984741211,0.32499998807907104 -32.44499969482422,-0.9610000252723694 C-32.44499969482422,-0.9610000252723694 -44.28900146484375,-2.693000078201294 -58.0629997253418,-9.237000465393066 C-59.775001525878906,-10.050999641418457 -62.70800018310547,-11.581000328063965 -64.38999938964844,-14.781000137329102 C-65.16300201416016,-16.25200080871582 -65.44400024414062,-17.64299964904785 -65.55899810791016,-18.594999313354492z"></path></g><g opacity="1" transform="matrix(1,0,0,1,67.84300231933594,22.57699966430664)"><path fill="rgb(254,209,136)" fill-opacity="1" d=" M65.55500030517578,0 C65.55500030517578,11.206000328063965 36.20500183105469,20.290000915527344 0,20.290000915527344 C-36.20500183105469,20.290000915527344 -65.55500030517578,11.206000328063965 -65.55500030517578,0 C-65.55500030517578,-11.206000328063965 -36.20500183105469,-20.290000915527344 0,-20.290000915527344 C36.20500183105469,-20.290000915527344 65.55500030517578,-11.206000328063965 65.55500030517578,0z"></path><path stroke-linecap="butt" stroke-linejoin="miter" fill-opacity="0" stroke-miterlimit="10" stroke="rgb(52,90,121)" stroke-opacity="1" stroke-width="0.915" d=" M65.55500030517578,0 C65.55500030517578,11.206000328063965 36.20500183105469,20.290000915527344 0,20.290000915527344 C-36.20500183105469,20.290000915527344 -65.55500030517578,11.206000328063965 -65.55500030517578,0 C-65.55500030517578,-11.206000328063965 -36.20500183105469,-20.290000915527344 0,-20.290000915527344 C36.20500183105469,-20.290000915527344 65.55500030517578,-11.206000328063965 65.55500030517578,0z"></path></g><g opacity="1" transform="matrix(1,0,0,1,64.57099914550781,21.99799919128418)"><path fill="rgb(52,90,121)" fill-opacity="1" d=" M13.145000457763672,-12.222999572753906 C13.710000038146973,-12.081000328063965 13.847999572753906,-11.668000221252441 13.454999923706055,-11.293999671936035 C13.454999923706055,-11.293999671936035 12.23900032043457,-10.156999588012695 12.23900032043457,-10.156999588012695 C14.890999794006348,-9.32699966430664 16.82900047302246,-7.98199987411499 17.804000854492188,-6.295000076293945 C18.017000198364258,-6.071000099182129 17.97800064086914,-5.76800012588501 17.698999404907227,-5.493000030517578 C17.26099967956543,-5.10099983215332 16.424999237060547,-4.909999847412109 15.831000328063965,-5.065999984741211 C15.526000022888184,-5.124000072479248 15.317999839782715,-5.263999938964844 15.260000228881836,-5.451000213623047 C14.51099967956543,-6.915999889373779 12.944000244140625,-8.105999946594238 10.755000114440918,-8.873000144958496 C10.755000114440918,-8.873000144958496 2.255000114440918,-0.9490000009536743 2.255000114440918,-0.9490000009536743 C7.8429999351501465,1.565999984741211 8.887999534606934,3.8399999141693115 5.906000137329102,6.630000114440918 C2.681999921798706,9.635000228881836 -3.434000015258789,10.815999984741211 -8.986000061035156,9.609999656677246 C-8.986000061035156,9.609999656677246 -11.35099983215332,11.814000129699707 -11.35099983215332,11.814000129699707 C-11.74899959564209,12.1850004196167 -12.529999732971191,12.37399959564209 -13.095999717712402,12.234999656677246 C-13.66100025177002,12.097000122070312 -13.795999526977539,11.684000015258789 -13.39799976348877,11.312999725341797 C-13.39799976348877,11.312999725341797 -11.001999855041504,9.074000358581543 -11.001999855041504,9.074000358581543 C-14.42199993133545,8.01099967956543 -16.802000045776367,6.206999778747559 -17.766000747680664,3.9509999752044678 C-18.016000747680664,3.6029999256134033 -17.6560001373291,3.125999927520752 -16.961999893188477,2.88700008392334 C-16.267000198364258,2.6480000019073486 -15.501999855041504,2.7360000610351562 -15.251999855041504,3.0850000381469727 C-15.229999542236328,3.115999937057495 -15.211999893188477,3.1489999294281006 -15.199999809265137,3.183000087738037 C-14.496000289916992,5.204999923706055 -12.501999855041504,6.843999862670898 -9.548999786376953,7.824999809265137 C-9.548999786376953,7.824999809265137 -0.8999999761581421,-0.24199999868869781 -0.8999999761581421,-0.24199999868869781 C-6.38700008392334,-2.7860000133514404 -7.368000030517578,-4.974999904632568 -4.39300012588501,-7.809000015258789 C-1.4190000295639038,-10.642999649047852 4.809000015258789,-11.923999786376953 10.15999984741211,-10.718000411987305 C10.15999984741211,-10.718000411987305 11.312999725341797,-11.795000076293945 11.312999725341797,-11.795000076293945 C11.659000396728516,-12.163999557495117 12.404999732971191,-12.37399959564209 12.979999542236328,-12.265999794006348 C13.038000106811523,-12.255000114440918 13.093000411987305,-12.241000175476074 13.145000457763672,-12.222999572753906z M0.6669999957084656,-1.6929999589920044 C0.6669999957084656,-1.6929999589920044 8.949999809265137,-9.423999786376953 8.949999809265137,-9.423999786376953 C4.703999996185303,-10.395000457763672 0.1899999976158142,-9.428999900817871 -2.000999927520752,-7.385000228881836 C-4.057000160217285,-5.461999893188477 -3.9600000381469727,-3.931999921798706 0.6669999957084656,-1.6929999589920044z M0.7269999980926514,0.47600001096725464 C0.7269999980926514,0.47600001096725464 -7.645999908447266,8.295000076293945 -7.645999908447266,8.295000076293945 C-3.2790000438690186,9.317999839782715 1.2990000247955322,8.340999603271484 3.609999895095825,6.183000087738037 C5.681000232696533,4.254000186920166 5.451000213623047,2.694000005722046 0.7139999866485596,0.49799999594688416 C0.7139999866485596,0.49799999594688416 0.7269999980926514,0.47600001096725464 0.7269999980926514,0.47600001096725464z"></path></g><g opacity="1" transform="matrix(1,0,0,1,31.149999618530273,21.990999221801758)"><path stroke-linecap="butt" stroke-linejoin="miter" fill-opacity="0" stroke-miterlimit="10" stroke="rgb(242,249,252)" stroke-opacity="1" stroke-width="0.915" d=" M6.644999980926514,12.54699993133545 C-4.5980000495910645,9.717000007629395 -11.781000137329102,5.4029998779296875 -11.781000137329102,0.5680000185966492 C-11.781000137329102,-4.9679999351501465 -2.365000009536743,-9.822999954223633 11.781000137329102,-12.54699993133545"></path></g><g opacity="1" transform="matrix(1,0,0,1,101.02400207519531,23.17799949645996)"><path stroke-linecap="butt" stroke-linejoin="miter" fill-opacity="0" stroke-miterlimit="10" stroke="rgb(242,249,252)" stroke-opacity="1" stroke-width="0.915" d=" M-8.211000442504883,-14.222000122070312 C7.435999870300293,-11.618000030517578 18.073999404907227,-6.502999782562256 18.073999404907227,-0.6200000047683716 C18.073999404907227,6.432000160217285 2.7960000038146973,12.378000259399414 -18.073999404907227,14.222000122070312"></path></g></g><g transform="matrix(1,0,0,1,484.0379638671875,258.22198486328125)" opacity="1" style="display: block;"><g opacity="1" transform="matrix(1,0,0,1,67.84600067138672,41.172000885009766)"><path fill="rgb(254,209,136)" fill-opacity="1" d=" M-65.55899810791016,-18.594999313354492 C-65.55899810791016,-18.594999313354492 -65.55899810791016,-1.6950000524520874 -65.55899810791016,-1.6950000524520874 C-65.55899810791016,9.51099967956543 -36.20899963378906,18.594999313354492 -0.004000000189989805,18.594999313354492 C36.20100021362305,18.594999313354492 65.5510025024414,9.51099967956543 65.5510025024414,-1.6950000524520874 C65.5510025024414,-1.6950000524520874 65.5510025024414,-18.594999313354492 65.5510025024414,-18.594999313354492 C65.55799865722656,-17.45400047302246 65.38800048828125,-15.590999603271484 64.21499633789062,-13.890999794006348 C63.25699996948242,-12.5 62.0369987487793,-11.814000129699707 61.35200119018555,-11.437999725341797 C54.86199951171875,-7.876999855041504 51.61600112915039,-6.0960001945495605 51.117000579833984,-5.914000034332275 C27.948999404907227,2.5360000133514404 -5.425000190734863,1.6260000467300415 -5.425000190734863,1.6260000467300415 C-16.913999557495117,1.312000036239624 -23.65999984741211,0.32499998807907104 -32.44499969482422,-0.9610000252723694 C-32.44499969482422,-0.9610000252723694 -44.28900146484375,-2.693000078201294 -58.0629997253418,-9.237000465393066 C-59.775001525878906,-10.050999641418457 -62.70800018310547,-11.581000328063965 -64.38999938964844,-14.781000137329102 C-65.16300201416016,-16.25200080871582 -65.44400024414062,-17.64299964904785 -65.55899810791016,-18.594999313354492z"></path><path stroke-linecap="butt" stroke-linejoin="miter" fill-opacity="0" stroke-miterlimit="10" stroke="rgb(52,90,121)" stroke-opacity="1" stroke-width="0.915" d=" M-65.55899810791016,-18.594999313354492 C-65.55899810791016,-18.594999313354492 -65.55899810791016,-1.6950000524520874 -65.55899810791016,-1.6950000524520874 C-65.55899810791016,9.51099967956543 -36.20899963378906,18.594999313354492 -0.004000000189989805,18.594999313354492 C36.20100021362305,18.594999313354492 65.5510025024414,9.51099967956543 65.5510025024414,-1.6950000524520874 C65.5510025024414,-1.6950000524520874 65.5510025024414,-18.594999313354492 65.5510025024414,-18.594999313354492 C65.55799865722656,-17.45400047302246 65.38800048828125,-15.590999603271484 64.21499633789062,-13.890999794006348 C63.25699996948242,-12.5 62.0369987487793,-11.814000129699707 61.35200119018555,-11.437999725341797 C54.86199951171875,-7.876999855041504 51.61600112915039,-6.0960001945495605 51.117000579833984,-5.914000034332275 C27.948999404907227,2.5360000133514404 -5.425000190734863,1.6260000467300415 -5.425000190734863,1.6260000467300415 C-16.913999557495117,1.312000036239624 -23.65999984741211,0.32499998807907104 -32.44499969482422,-0.9610000252723694 C-32.44499969482422,-0.9610000252723694 -44.28900146484375,-2.693000078201294 -58.0629997253418,-9.237000465393066 C-59.775001525878906,-10.050999641418457 -62.70800018310547,-11.581000328063965 -64.38999938964844,-14.781000137329102 C-65.16300201416016,-16.25200080871582 -65.44400024414062,-17.64299964904785 -65.55899810791016,-18.594999313354492z"></path></g><g opacity="1" transform="matrix(1,0,0,1,67.84300231933594,22.57699966430664)"><path fill="rgb(250,176,95)" fill-opacity="1" d=" M65.55500030517578,0 C65.55500030517578,11.206000328063965 36.20500183105469,20.290000915527344 0,20.290000915527344 C-36.20500183105469,20.290000915527344 -65.55500030517578,11.206000328063965 -65.55500030517578,0 C-65.55500030517578,-11.206000328063965 -36.20500183105469,-20.290000915527344 0,-20.290000915527344 C36.20500183105469,-20.290000915527344 65.55500030517578,-11.206000328063965 65.55500030517578,0z"></path><path stroke-linecap="butt" stroke-linejoin="miter" fill-opacity="0" stroke-miterlimit="10" stroke="rgb(52,90,121)" stroke-opacity="1" stroke-width="0.915" d=" M65.55500030517578,0 C65.55500030517578,11.206000328063965 36.20500183105469,20.290000915527344 0,20.290000915527344 C-36.20500183105469,20.290000915527344 -65.55500030517578,11.206000328063965 -65.55500030517578,0 C-65.55500030517578,-11.206000328063965 -36.20500183105469,-20.290000915527344 0,-20.290000915527344 C36.20500183105469,-20.290000915527344 65.55500030517578,-11.206000328063965 65.55500030517578,0z"></path></g><g opacity="1" transform="matrix(1,0,0,1,64.57099914550781,21.99799919128418)"><path fill="rgb(52,90,121)" fill-opacity="1" d=" M13.145000457763672,-12.222999572753906 C13.710000038146973,-12.081000328063965 13.847999572753906,-11.668000221252441 13.454999923706055,-11.293999671936035 C13.454999923706055,-11.293999671936035 12.23900032043457,-10.156999588012695 12.23900032043457,-10.156999588012695 C14.890999794006348,-9.32699966430664 16.82900047302246,-7.98199987411499 17.804000854492188,-6.295000076293945 C18.017000198364258,-6.071000099182129 17.97800064086914,-5.76800012588501 17.698999404907227,-5.493000030517578 C17.26099967956543,-5.10099983215332 16.424999237060547,-4.909999847412109 15.831000328063965,-5.065999984741211 C15.526000022888184,-5.124000072479248 15.317999839782715,-5.263999938964844 15.260000228881836,-5.451000213623047 C14.51099967956543,-6.915999889373779 12.944000244140625,-8.105999946594238 10.755000114440918,-8.873000144958496 C10.755000114440918,-8.873000144958496 2.255000114440918,-0.9490000009536743 2.255000114440918,-0.9490000009536743 C7.8429999351501465,1.565999984741211 8.887999534606934,3.8399999141693115 5.906000137329102,6.630000114440918 C2.681999921798706,9.635000228881836 -3.434000015258789,10.815999984741211 -8.986000061035156,9.609999656677246 C-8.986000061035156,9.609999656677246 -11.35099983215332,11.814000129699707 -11.35099983215332,11.814000129699707 C-11.74899959564209,12.1850004196167 -12.529999732971191,12.37399959564209 -13.095999717712402,12.234999656677246 C-13.66100025177002,12.097000122070312 -13.795999526977539,11.684000015258789 -13.39799976348877,11.312999725341797 C-13.39799976348877,11.312999725341797 -11.001999855041504,9.074000358581543 -11.001999855041504,9.074000358581543 C-14.42199993133545,8.01099967956543 -16.802000045776367,6.206999778747559 -17.766000747680664,3.9509999752044678 C-18.016000747680664,3.6029999256134033 -17.6560001373291,3.125999927520752 -16.961999893188477,2.88700008392334 C-16.267000198364258,2.6480000019073486 -15.501999855041504,2.7360000610351562 -15.251999855041504,3.0850000381469727 C-15.229999542236328,3.115999937057495 -15.211999893188477,3.1489999294281006 -15.199999809265137,3.183000087738037 C-14.496000289916992,5.204999923706055 -12.501999855041504,6.843999862670898 -9.548999786376953,7.824999809265137 C-9.548999786376953,7.824999809265137 -0.8999999761581421,-0.24199999868869781 -0.8999999761581421,-0.24199999868869781 C-6.38700008392334,-2.7860000133514404 -7.368000030517578,-4.974999904632568 -4.39300012588501,-7.809000015258789 C-1.4190000295639038,-10.642999649047852 4.809000015258789,-11.923999786376953 10.15999984741211,-10.718000411987305 C10.15999984741211,-10.718000411987305 11.312999725341797,-11.795000076293945 11.312999725341797,-11.795000076293945 C11.659000396728516,-12.163999557495117 12.404999732971191,-12.37399959564209 12.979999542236328,-12.265999794006348 C13.038000106811523,-12.255000114440918 13.093000411987305,-12.241000175476074 13.145000457763672,-12.222999572753906z M0.6669999957084656,-1.6929999589920044 C0.6669999957084656,-1.6929999589920044 8.949999809265137,-9.423999786376953 8.949999809265137,-9.423999786376953 C4.703999996185303,-10.395000457763672 0.1899999976158142,-9.428999900817871 -2.000999927520752,-7.385000228881836 C-4.057000160217285,-5.461999893188477 -3.9600000381469727,-3.931999921798706 0.6669999957084656,-1.6929999589920044z M0.7269999980926514,0.47600001096725464 C0.7269999980926514,0.47600001096725464 -7.645999908447266,8.295000076293945 -7.645999908447266,8.295000076293945 C-3.2790000438690186,9.317999839782715 1.2990000247955322,8.340999603271484 3.609999895095825,6.183000087738037 C5.681000232696533,4.254000186920166 5.451000213623047,2.694000005722046 0.7139999866485596,0.49799999594688416 C0.7139999866485596,0.49799999594688416 0.7269999980926514,0.47600001096725464 0.7269999980926514,0.47600001096725464z"></path></g><g opacity="1" transform="matrix(1,0,0,1,31.149999618530273,21.990999221801758)"><path stroke-linecap="butt" stroke-linejoin="miter" fill-opacity="0" stroke-miterlimit="10" stroke="rgb(242,249,252)" stroke-opacity="1" stroke-width="0.915" d=" M6.644999980926514,12.54699993133545 C-4.5980000495910645,9.717000007629395 -11.781999588012695,5.4029998779296875 -11.781999588012695,0.5680000185966492 C-11.781999588012695,-4.9679999351501465 -2.364000082015991,-9.822999954223633 11.781999588012695,-12.54699993133545"></path></g><g opacity="1" transform="matrix(1,0,0,1,101.02400207519531,23.17799949645996)"><path stroke-linecap="butt" stroke-linejoin="miter" fill-opacity="0" stroke-miterlimit="10" stroke="rgb(242,249,252)" stroke-opacity="1" stroke-width="0.915" d=" M-8.211000442504883,-14.222000122070312 C7.435999870300293,-11.618000030517578 18.073999404907227,-6.502999782562256 18.073999404907227,-0.6200000047683716 C18.073999404907227,6.432000160217285 2.7960000038146973,12.378000259399414 -18.073999404907227,14.222000122070312"></path></g></g><g transform="matrix(1,0,0,1,467.0379638671875,237.22198486328125)" opacity="1" style="display: block;"><g opacity="1" transform="matrix(1,0,0,1,67.84600067138672,41.172000885009766)"><path fill="rgb(250,176,95)" fill-opacity="1" d=" M-65.55899810791016,-18.594999313354492 C-65.55899810791016,-18.594999313354492 -65.55899810791016,-1.6950000524520874 -65.55899810791016,-1.6950000524520874 C-65.55899810791016,9.51099967956543 -36.20899963378906,18.594999313354492 -0.004000000189989805,18.594999313354492 C36.20100021362305,18.594999313354492 65.5510025024414,9.51099967956543 65.5510025024414,-1.6950000524520874 C65.5510025024414,-1.6950000524520874 65.5510025024414,-18.594999313354492 65.5510025024414,-18.594999313354492 C65.55799865722656,-17.45400047302246 65.38800048828125,-15.590999603271484 64.21499633789062,-13.890999794006348 C63.25699996948242,-12.5 62.0369987487793,-11.814000129699707 61.35200119018555,-11.437999725341797 C54.86199951171875,-7.876999855041504 51.61600112915039,-6.0960001945495605 51.117000579833984,-5.914000034332275 C27.948999404907227,2.5360000133514404 -5.425000190734863,1.6260000467300415 -5.425000190734863,1.6260000467300415 C-16.913999557495117,1.312000036239624 -23.65999984741211,0.32499998807907104 -32.44499969482422,-0.9610000252723694 C-32.44499969482422,-0.9610000252723694 -44.28900146484375,-2.693000078201294 -58.0629997253418,-9.237000465393066 C-59.775001525878906,-10.050999641418457 -62.70800018310547,-11.581000328063965 -64.38999938964844,-14.781000137329102 C-65.16300201416016,-16.25200080871582 -65.44400024414062,-17.64299964904785 -65.55899810791016,-18.594999313354492z"></path><path stroke-linecap="butt" stroke-linejoin="miter" fill-opacity="0" stroke-miterlimit="10" stroke="rgb(52,90,121)" stroke-opacity="1" stroke-width="0.915" d=" M-65.55899810791016,-18.594999313354492 C-65.55899810791016,-18.594999313354492 -65.55899810791016,-1.6950000524520874 -65.55899810791016,-1.6950000524520874 C-65.55899810791016,9.51099967956543 -36.20899963378906,18.594999313354492 -0.004000000189989805,18.594999313354492 C36.20100021362305,18.594999313354492 65.5510025024414,9.51099967956543 65.5510025024414,-1.6950000524520874 C65.5510025024414,-1.6950000524520874 65.5510025024414,-18.594999313354492 65.5510025024414,-18.594999313354492 C65.55799865722656,-17.45400047302246 65.38800048828125,-15.590999603271484 64.21499633789062,-13.890999794006348 C63.25699996948242,-12.5 62.0369987487793,-11.814000129699707 61.35200119018555,-11.437999725341797 C54.86199951171875,-7.876999855041504 51.61600112915039,-6.0960001945495605 51.117000579833984,-5.914000034332275 C27.948999404907227,2.5360000133514404 -5.425000190734863,1.6260000467300415 -5.425000190734863,1.6260000467300415 C-16.913999557495117,1.312000036239624 -23.65999984741211,0.32499998807907104 -32.44499969482422,-0.9610000252723694 C-32.44499969482422,-0.9610000252723694 -44.28900146484375,-2.693000078201294 -58.0629997253418,-9.237000465393066 C-59.775001525878906,-10.050999641418457 -62.70800018310547,-11.581000328063965 -64.38999938964844,-14.781000137329102 C-65.16300201416016,-16.25200080871582 -65.44400024414062,-17.64299964904785 -65.55899810791016,-18.594999313354492z"></path></g><g opacity="1" transform="matrix(1,0,0,1,67.84300231933594,22.57699966430664)"><path fill="rgb(254,209,136)" fill-opacity="1" d=" M65.55500030517578,0 C65.55500030517578,11.206000328063965 36.20500183105469,20.290000915527344 0,20.290000915527344 C-36.20500183105469,20.290000915527344 -65.55500030517578,11.206000328063965 -65.55500030517578,0 C-65.55500030517578,-11.206000328063965 -36.20500183105469,-20.290000915527344 0,-20.290000915527344 C36.20500183105469,-20.290000915527344 65.55500030517578,-11.206000328063965 65.55500030517578,0z"></path><path stroke-linecap="butt" stroke-linejoin="miter" fill-opacity="0" stroke-miterlimit="10" stroke="rgb(52,90,121)" stroke-opacity="1" stroke-width="0.915" d=" M65.55500030517578,0 C65.55500030517578,11.206000328063965 36.20500183105469,20.290000915527344 0,20.290000915527344 C-36.20500183105469,20.290000915527344 -65.55500030517578,11.206000328063965 -65.55500030517578,0 C-65.55500030517578,-11.206000328063965 -36.20500183105469,-20.290000915527344 0,-20.290000915527344 C36.20500183105469,-20.290000915527344 65.55500030517578,-11.206000328063965 65.55500030517578,0z"></path></g><g opacity="1" transform="matrix(1,0,0,1,64.57099914550781,21.99799919128418)"><path fill="rgb(52,90,121)" fill-opacity="1" d=" M13.145000457763672,-12.222999572753906 C13.710000038146973,-12.081000328063965 13.847999572753906,-11.668000221252441 13.454999923706055,-11.293999671936035 C13.454999923706055,-11.293999671936035 12.23900032043457,-10.156999588012695 12.23900032043457,-10.156999588012695 C14.890999794006348,-9.32699966430664 16.82900047302246,-7.98199987411499 17.804000854492188,-6.295000076293945 C18.017000198364258,-6.071000099182129 17.97800064086914,-5.76800012588501 17.698999404907227,-5.493000030517578 C17.26099967956543,-5.10099983215332 16.424999237060547,-4.909999847412109 15.831000328063965,-5.065999984741211 C15.526000022888184,-5.124000072479248 15.317999839782715,-5.263999938964844 15.260000228881836,-5.451000213623047 C14.51099967956543,-6.915999889373779 12.944000244140625,-8.105999946594238 10.755000114440918,-8.873000144958496 C10.755000114440918,-8.873000144958496 2.255000114440918,-0.9490000009536743 2.255000114440918,-0.9490000009536743 C7.8429999351501465,1.565999984741211 8.887999534606934,3.8399999141693115 5.906000137329102,6.630000114440918 C2.681999921798706,9.635000228881836 -3.434000015258789,10.815999984741211 -8.986000061035156,9.609999656677246 C-8.986000061035156,9.609999656677246 -11.35099983215332,11.814000129699707 -11.35099983215332,11.814000129699707 C-11.74899959564209,12.1850004196167 -12.529999732971191,12.37399959564209 -13.095999717712402,12.234999656677246 C-13.66100025177002,12.097000122070312 -13.795999526977539,11.684000015258789 -13.39799976348877,11.312999725341797 C-13.39799976348877,11.312999725341797 -11.001999855041504,9.074000358581543 -11.001999855041504,9.074000358581543 C-14.42199993133545,8.01099967956543 -16.802000045776367,6.206999778747559 -17.766000747680664,3.9509999752044678 C-18.016000747680664,3.6029999256134033 -17.6560001373291,3.125999927520752 -16.961999893188477,2.88700008392334 C-16.267000198364258,2.6480000019073486 -15.501999855041504,2.7360000610351562 -15.251999855041504,3.0850000381469727 C-15.229999542236328,3.115999937057495 -15.211999893188477,3.1489999294281006 -15.199999809265137,3.183000087738037 C-14.496000289916992,5.204999923706055 -12.501999855041504,6.843999862670898 -9.548999786376953,7.824999809265137 C-9.548999786376953,7.824999809265137 -0.8999999761581421,-0.24199999868869781 -0.8999999761581421,-0.24199999868869781 C-6.38700008392334,-2.7860000133514404 -7.368000030517578,-4.974999904632568 -4.39300012588501,-7.809000015258789 C-1.4190000295639038,-10.642999649047852 4.809000015258789,-11.923999786376953 10.15999984741211,-10.718000411987305 C10.15999984741211,-10.718000411987305 11.312999725341797,-11.795000076293945 11.312999725341797,-11.795000076293945 C11.659000396728516,-12.163999557495117 12.404999732971191,-12.37399959564209 12.979999542236328,-12.265999794006348 C13.038000106811523,-12.255000114440918 13.093000411987305,-12.241000175476074 13.145000457763672,-12.222999572753906z M0.6669999957084656,-1.6929999589920044 C0.6669999957084656,-1.6929999589920044 8.949999809265137,-9.423999786376953 8.949999809265137,-9.423999786376953 C4.703999996185303,-10.395000457763672 0.1899999976158142,-9.428999900817871 -2.000999927520752,-7.385000228881836 C-4.057000160217285,-5.461999893188477 -3.9600000381469727,-3.931999921798706 0.6669999957084656,-1.6929999589920044z M0.7269999980926514,0.47600001096725464 C0.7269999980926514,0.47600001096725464 -7.645999908447266,8.295000076293945 -7.645999908447266,8.295000076293945 C-3.2790000438690186,9.317999839782715 1.2990000247955322,8.340999603271484 3.609999895095825,6.183000087738037 C5.681000232696533,4.254000186920166 5.451000213623047,2.694000005722046 0.7139999866485596,0.49799999594688416 C0.7139999866485596,0.49799999594688416 0.7269999980926514,0.47600001096725464 0.7269999980926514,0.47600001096725464z"></path></g><g opacity="1" transform="matrix(1,0,0,1,31.149999618530273,21.990999221801758)"><path stroke-linecap="butt" stroke-linejoin="miter" fill-opacity="0" stroke-miterlimit="10" stroke="rgb(242,249,252)" stroke-opacity="1" stroke-width="0.915" d=" M6.644999980926514,12.54699993133545 C-4.5980000495910645,9.717000007629395 -11.781999588012695,5.4029998779296875 -11.781999588012695,0.5680000185966492 C-11.781999588012695,-4.9679999351501465 -2.364000082015991,-9.822999954223633 11.781999588012695,-12.54699993133545"></path></g><g opacity="1" transform="matrix(1,0,0,1,101.02400207519531,23.17799949645996)"><path stroke-linecap="butt" stroke-linejoin="miter" fill-opacity="0" stroke-miterlimit="10" stroke="rgb(242,249,252)" stroke-opacity="1" stroke-width="0.915" d=" M-8.211000442504883,-14.222000122070312 C7.435999870300293,-11.618000030517578 18.073999404907227,-6.502999782562256 18.073999404907227,-0.6200000047683716 C18.073999404907227,6.432000160217285 2.7960000038146973,12.378000259399414 -18.073999404907227,14.222000122070312"></path></g></g><g transform="matrix(1,0,0,1,478.0379638671875,213.22198486328125)" opacity="1" style="display: block;"><g opacity="1" transform="matrix(1,0,0,1,67.84600067138672,41.172000885009766)"><path fill="rgb(250,176,95)" fill-opacity="1" d=" M-65.55899810791016,-18.594999313354492 C-65.55899810791016,-18.594999313354492 -65.55899810791016,-1.6950000524520874 -65.55899810791016,-1.6950000524520874 C-65.55899810791016,9.51099967956543 -36.20899963378906,18.594999313354492 -0.004000000189989805,18.594999313354492 C36.20100021362305,18.594999313354492 65.5510025024414,9.51099967956543 65.5510025024414,-1.6950000524520874 C65.5510025024414,-1.6950000524520874 65.5510025024414,-18.594999313354492 65.5510025024414,-18.594999313354492 C65.55799865722656,-17.45400047302246 65.38800048828125,-15.590999603271484 64.21499633789062,-13.890999794006348 C63.25699996948242,-12.5 62.0369987487793,-11.814000129699707 61.35200119018555,-11.437999725341797 C54.86199951171875,-7.876999855041504 51.61600112915039,-6.0960001945495605 51.117000579833984,-5.914000034332275 C27.948999404907227,2.5360000133514404 -5.425000190734863,1.6260000467300415 -5.425000190734863,1.6260000467300415 C-16.913999557495117,1.312000036239624 -23.65999984741211,0.32499998807907104 -32.44499969482422,-0.9610000252723694 C-32.44499969482422,-0.9610000252723694 -44.28900146484375,-2.693000078201294 -58.0629997253418,-9.237000465393066 C-59.775001525878906,-10.050999641418457 -62.70800018310547,-11.581000328063965 -64.38999938964844,-14.781000137329102 C-65.16300201416016,-16.25200080871582 -65.44400024414062,-17.64299964904785 -65.55899810791016,-18.594999313354492z"></path><path stroke-linecap="butt" stroke-linejoin="miter" fill-opacity="0" stroke-miterlimit="10" stroke="rgb(52,90,121)" stroke-opacity="1" stroke-width="0.915" d=" M-65.55899810791016,-18.594999313354492 C-65.55899810791016,-18.594999313354492 -65.55899810791016,-1.6950000524520874 -65.55899810791016,-1.6950000524520874 C-65.55899810791016,9.51099967956543 -36.20899963378906,18.594999313354492 -0.004000000189989805,18.594999313354492 C36.20100021362305,18.594999313354492 65.5510025024414,9.51099967956543 65.5510025024414,-1.6950000524520874 C65.5510025024414,-1.6950000524520874 65.5510025024414,-18.594999313354492 65.5510025024414,-18.594999313354492 C65.55799865722656,-17.45400047302246 65.38800048828125,-15.590999603271484 64.21499633789062,-13.890999794006348 C63.25699996948242,-12.5 62.0369987487793,-11.814000129699707 61.35200119018555,-11.437999725341797 C54.86199951171875,-7.876999855041504 51.61600112915039,-6.0960001945495605 51.117000579833984,-5.914000034332275 C27.948999404907227,2.5360000133514404 -5.425000190734863,1.6260000467300415 -5.425000190734863,1.6260000467300415 C-16.913999557495117,1.312000036239624 -23.65999984741211,0.32499998807907104 -32.44499969482422,-0.9610000252723694 C-32.44499969482422,-0.9610000252723694 -44.28900146484375,-2.693000078201294 -58.0629997253418,-9.237000465393066 C-59.775001525878906,-10.050999641418457 -62.70800018310547,-11.581000328063965 -64.38999938964844,-14.781000137329102 C-65.16300201416016,-16.25200080871582 -65.44400024414062,-17.64299964904785 -65.55899810791016,-18.594999313354492z"></path></g><g opacity="1" transform="matrix(1,0,0,1,67.84300231933594,22.57699966430664)"><path fill="rgb(254,209,136)" fill-opacity="1" d=" M65.55500030517578,0 C65.55500030517578,11.206000328063965 36.20500183105469,20.290000915527344 0,20.290000915527344 C-36.20500183105469,20.290000915527344 -65.55500030517578,11.206000328063965 -65.55500030517578,0 C-65.55500030517578,-11.206000328063965 -36.20500183105469,-20.290000915527344 0,-20.290000915527344 C36.20500183105469,-20.290000915527344 65.55500030517578,-11.206000328063965 65.55500030517578,0z"></path><path stroke-linecap="butt" stroke-linejoin="miter" fill-opacity="0" stroke-miterlimit="10" stroke="rgb(52,90,121)" stroke-opacity="1" stroke-width="0.915" d=" M65.55500030517578,0 C65.55500030517578,11.206000328063965 36.20500183105469,20.290000915527344 0,20.290000915527344 C-36.20500183105469,20.290000915527344 -65.55500030517578,11.206000328063965 -65.55500030517578,0 C-65.55500030517578,-11.206000328063965 -36.20500183105469,-20.290000915527344 0,-20.290000915527344 C36.20500183105469,-20.290000915527344 65.55500030517578,-11.206000328063965 65.55500030517578,0z"></path></g><g opacity="1" transform="matrix(1,0,0,1,64.57099914550781,21.99799919128418)"><path fill="rgb(52,90,121)" fill-opacity="1" d=" M13.145000457763672,-12.222999572753906 C13.710000038146973,-12.081000328063965 13.847999572753906,-11.668000221252441 13.454999923706055,-11.293999671936035 C13.454999923706055,-11.293999671936035 12.23900032043457,-10.156999588012695 12.23900032043457,-10.156999588012695 C14.890999794006348,-9.32699966430664 16.82900047302246,-7.98199987411499 17.804000854492188,-6.295000076293945 C18.017000198364258,-6.071000099182129 17.97800064086914,-5.76800012588501 17.698999404907227,-5.493000030517578 C17.26099967956543,-5.10099983215332 16.424999237060547,-4.909999847412109 15.831000328063965,-5.065999984741211 C15.526000022888184,-5.124000072479248 15.317999839782715,-5.263999938964844 15.260000228881836,-5.451000213623047 C14.51099967956543,-6.915999889373779 12.944000244140625,-8.105999946594238 10.755000114440918,-8.873000144958496 C10.755000114440918,-8.873000144958496 2.255000114440918,-0.9490000009536743 2.255000114440918,-0.9490000009536743 C7.8429999351501465,1.565999984741211 8.887999534606934,3.8399999141693115 5.906000137329102,6.630000114440918 C2.681999921798706,9.635000228881836 -3.434000015258789,10.815999984741211 -8.986000061035156,9.609999656677246 C-8.986000061035156,9.609999656677246 -11.35099983215332,11.814000129699707 -11.35099983215332,11.814000129699707 C-11.74899959564209,12.1850004196167 -12.529999732971191,12.37399959564209 -13.095999717712402,12.234999656677246 C-13.66100025177002,12.097000122070312 -13.795999526977539,11.684000015258789 -13.39799976348877,11.312999725341797 C-13.39799976348877,11.312999725341797 -11.001999855041504,9.074000358581543 -11.001999855041504,9.074000358581543 C-14.42199993133545,8.01099967956543 -16.802000045776367,6.206999778747559 -17.766000747680664,3.9509999752044678 C-18.016000747680664,3.6029999256134033 -17.6560001373291,3.125999927520752 -16.961999893188477,2.88700008392334 C-16.267000198364258,2.6480000019073486 -15.501999855041504,2.7360000610351562 -15.251999855041504,3.0850000381469727 C-15.229999542236328,3.115999937057495 -15.211999893188477,3.1489999294281006 -15.199999809265137,3.183000087738037 C-14.496000289916992,5.204999923706055 -12.501999855041504,6.843999862670898 -9.548999786376953,7.824999809265137 C-9.548999786376953,7.824999809265137 -0.8999999761581421,-0.24199999868869781 -0.8999999761581421,-0.24199999868869781 C-6.38700008392334,-2.7860000133514404 -7.368000030517578,-4.974999904632568 -4.39300012588501,-7.809000015258789 C-1.4190000295639038,-10.642999649047852 4.809000015258789,-11.923999786376953 10.15999984741211,-10.718000411987305 C10.15999984741211,-10.718000411987305 11.312999725341797,-11.795000076293945 11.312999725341797,-11.795000076293945 C11.659000396728516,-12.163999557495117 12.404999732971191,-12.37399959564209 12.979999542236328,-12.265999794006348 C13.038000106811523,-12.255000114440918 13.093000411987305,-12.241000175476074 13.145000457763672,-12.222999572753906z M0.6669999957084656,-1.6929999589920044 C0.6669999957084656,-1.6929999589920044 8.949999809265137,-9.423999786376953 8.949999809265137,-9.423999786376953 C4.703999996185303,-10.395000457763672 0.1899999976158142,-9.428999900817871 -2.000999927520752,-7.385000228881836 C-4.057000160217285,-5.461999893188477 -3.9600000381469727,-3.931999921798706 0.6669999957084656,-1.6929999589920044z M0.7269999980926514,0.47600001096725464 C0.7269999980926514,0.47600001096725464 -7.645999908447266,8.295000076293945 -7.645999908447266,8.295000076293945 C-3.2790000438690186,9.317999839782715 1.2990000247955322,8.340999603271484 3.609999895095825,6.183000087738037 C5.681000232696533,4.254000186920166 5.451000213623047,2.694000005722046 0.7139999866485596,0.49799999594688416 C0.7139999866485596,0.49799999594688416 0.7269999980926514,0.47600001096725464 0.7269999980926514,0.47600001096725464z"></path></g><g opacity="1" transform="matrix(1,0,0,1,31.149999618530273,21.990999221801758)"><path stroke-linecap="butt" stroke-linejoin="miter" fill-opacity="0" stroke-miterlimit="10" stroke="rgb(242,249,252)" stroke-opacity="1" stroke-width="0.915" d=" M6.644999980926514,12.54699993133545 C-4.5980000495910645,9.717000007629395 -11.781999588012695,5.4029998779296875 -11.781999588012695,0.5680000185966492 C-11.781999588012695,-4.9679999351501465 -2.364000082015991,-9.822999954223633 11.781999588012695,-12.54699993133545"></path></g><g opacity="1" transform="matrix(1,0,0,1,101.02400207519531,23.17799949645996)"><path stroke-linecap="butt" stroke-linejoin="miter" fill-opacity="0" stroke-miterlimit="10" stroke="rgb(242,249,252)" stroke-opacity="1" stroke-width="0.915" d=" M-8.211000442504883,-14.222000122070312 C7.435999870300293,-11.618000030517578 18.073999404907227,-6.502999782562256 18.073999404907227,-0.6200000047683716 C18.073999404907227,6.432000160217285 2.7960000038146973,12.378000259399414 -18.073999404907227,14.222000122070312"></path></g></g><g transform="matrix(1,0,0,1,320.7750244140625,86.05099487304688)" opacity="1" style="display: block;"><g opacity="1" transform="matrix(1,0,0,1,226.531005859375,226.531005859375)"><path stroke-linecap="round" stroke-linejoin="round" fill-opacity="0" stroke-dasharray=" 0.134 8.902" stroke-dashoffset="0" stroke="rgb(0,130,195)" stroke-opacity="1" stroke-width="1.335" d=" M137.46400451660156,-175.85000610351562 C189.65199279785156,-134.99600219726562 223.1929931640625,-71.41500091552734 223.1929931640625,0 C223.1929931640625,0 223.1929931640625,0 223.1929931640625,0 C223.1929931640625,123.26599884033203 123.26599884033203,223.19400024414062 -0.0010000000474974513,223.19400024414062 C-123.26699829101562,223.19400024414062 -223.1929931640625,123.26599884033203 -223.1929931640625,0 C-223.1929931640625,-123.26599884033203 -123.26699829101562,-223.19400024414062 -0.0010000000474974513,-223.19400024414062 C51.85100173950195,-223.19400024414062 99.5719985961914,-205.51300048828125 137.46400451660156,-175.85000610351562"></path></g></g><g transform="matrix(1,0,0,1,497.5366516113281,476.5650634765625)" opacity="1" style="display: block;"><g opacity="1" transform="matrix(1,0,0,1,40.808998107910156,57.54999923706055)"><path fill="rgb(255,254,255)" fill-opacity="1" d=" M14.812999725341797,55.805999755859375 C14.812999725341797,55.805999755859375 -35.60200119018555,45.45600128173828 -35.60200119018555,45.45600128173828 C-38.007999420166016,44.96200180053711 -39.558998107910156,42.611000061035156 -39.064998626708984,40.20399856567383 C-39.064998626708984,40.20399856567383 -20.065000534057617,-52.34299850463867 -20.065000534057617,-52.34299850463867 C-19.570999145507812,-54.749000549316406 -17.219999313354492,-56.29999923706055 -14.812999725341797,-55.805999755859375 C-14.812999725341797,-55.805999755859375 35.60200119018555,-45.45500183105469 35.60200119018555,-45.45500183105469 C38.007999420166016,-44.96099853515625 39.558998107910156,-42.61000061035156 39.064998626708984,-40.20399856567383 C39.064998626708984,-40.20399856567383 20.065000534057617,52.34299850463867 20.065000534057617,52.34299850463867 C19.570999145507812,54.75 17.2189998626709,56.29999923706055 14.812999725341797,55.805999755859375z"></path><path stroke-linecap="round" stroke-linejoin="round" fill-opacity="0" stroke="rgb(52,90,121)" stroke-opacity="1" stroke-width="0.5" d=" M14.812999725341797,55.805999755859375 C14.812999725341797,55.805999755859375 -35.60200119018555,45.45600128173828 -35.60200119018555,45.45600128173828 C-38.007999420166016,44.96200180053711 -39.558998107910156,42.611000061035156 -39.064998626708984,40.20399856567383 C-39.064998626708984,40.20399856567383 -20.065000534057617,-52.34299850463867 -20.065000534057617,-52.34299850463867 C-19.570999145507812,-54.749000549316406 -17.219999313354492,-56.29999923706055 -14.812999725341797,-55.805999755859375 C-14.812999725341797,-55.805999755859375 35.60200119018555,-45.45500183105469 35.60200119018555,-45.45500183105469 C38.007999420166016,-44.96099853515625 39.558998107910156,-42.61000061035156 39.064998626708984,-40.20399856567383 C39.064998626708984,-40.20399856567383 20.065000534057617,52.34299850463867 20.065000534057617,52.34299850463867 C19.570999145507812,54.75 17.2189998626709,56.29999923706055 14.812999725341797,55.805999755859375z"></path></g><g opacity="1" transform="matrix(1,0,0,1,40.97999954223633,56.715999603271484)"><path stroke-linecap="round" stroke-linejoin="round" fill-opacity="0" stroke="rgb(52,90,121)" stroke-opacity="1" stroke-width="0.5" d=" M17.923999786376953,42.1609992980957 C17.923999786376953,42.1609992980957 -33.084999084472656,31.68899917602539 -33.084999084472656,31.68899917602539 C-33.084999084472656,31.68899917602539 -17.92300033569336,-42.1609992980957 -17.92300033569336,-42.1609992980957 C-17.92300033569336,-42.1609992980957 33.084999084472656,-31.68899917602539 33.084999084472656,-31.68899917602539 C33.084999084472656,-31.68899917602539 17.923999786376953,42.1609992980957 17.923999786376953,42.1609992980957z"></path></g><g opacity="1" transform="matrix(1,0,0,1,49.305999755859375,12.727999687194824)"><path stroke-linecap="round" stroke-linejoin="round" fill-opacity="0" stroke="rgb(52,90,121)" stroke-opacity="1" stroke-width="0.5" d=" M-6.978000164031982,-1.4329999685287476 C-6.978000164031982,-1.4329999685287476 6.978000164031982,1.4329999685287476 6.978000164031982,1.4329999685287476"></path></g><g opacity="1" transform="matrix(1,0,0,1,31.974000930786133,101.45800018310547)"><path stroke-linecap="round" stroke-linejoin="round" fill-opacity="0" stroke="rgb(52,90,121)" stroke-opacity="1" stroke-width="0.5" d=" M3.5460000038146973,0.7279999852180481 C3.187000036239624,2.4769999980926514 1.3079999685287476,3.568000078201294 -0.6499999761581421,3.1659998893737793 C-2.6089999675750732,2.7639999389648438 -3.9049999713897705,1.0210000276565552 -3.5460000038146973,-0.7279999852180481 C-3.187000036239624,-2.4769999980926514 -1.309000015258789,-3.568000078201294 0.6499999761581421,-3.1659998893737793 C2.6080000400543213,-2.7639999389648438 3.9049999713897705,-1.0210000276565552 3.5460000038146973,0.7279999852180481z"></path></g></g><g transform="matrix(1,0,0,1,736.2291259765625,262.1103820800781)" opacity="1" style="display: block;"><g opacity="1" transform="matrix(1,0,0,1,36.13800048828125,84.91000366210938)"><path stroke-linecap="butt" stroke-linejoin="miter" fill-opacity="0" stroke-miterlimit="10" stroke="rgb(52,90,121)" stroke-opacity="1" stroke-width="0.5" d=" M13.321000099182129,-0.9020000100135803 C13.359999656677246,-0.32499998807907104 12.925000190734863,0.17399999499320984 12.347000122070312,0.2150000035762787 C12.347000122070312,0.2150000035762787 -12.206000328063965,1.875 -12.206000328063965,1.875 C-12.782999992370605,1.9149999618530273 -13.282999992370605,1.4800000190734863 -13.321999549865723,0.9039999842643738 C-13.359999656677246,0.32600000500679016 -12.923999786376953,-0.17299999296665192 -12.347000122070312,-0.21199999749660492 C-12.347000122070312,-0.21199999749660492 12.204999923706055,-1.8760000467300415 12.204999923706055,-1.8760000467300415 C12.781999588012695,-1.9160000085830688 13.281999588012695,-1.4789999723434448 13.321000099182129,-0.9020000100135803z"></path></g><g opacity="1" transform="matrix(1,0,0,1,36.108001708984375,42.63199996948242)"><path fill="rgb(255,254,255)" fill-opacity="1" d=" M0.0010000000474974513,-41.382999420166016 C-19.250999450683594,-41.382999420166016 -34.85900115966797,-25.774999618530273 -34.85900115966797,-6.5229997634887695 C-34.85900115966797,6.860000133514404 -27.31100082397461,18.474000930786133 -16.2450008392334,24.315000534057617 C-14.321000099182129,27.797000885009766 -12.081999778747559,33.56700134277344 -12.234000205993652,41.382999420166016 C-12.234000205993652,41.382999420166016 12.206000328063965,39.72700119018555 12.206000328063965,39.72700119018555 C12.218000411987305,39.72700119018555 12.229999542236328,39.729000091552734 12.241999626159668,39.729000091552734 C12.406999588012695,32.75 14.461999893188477,27.547000885009766 16.246999740600586,24.315000534057617 C27.312000274658203,18.474000930786133 34.85900115966797,6.860000133514404 34.85900115966797,-6.5229997634887695 C34.85900115966797,-25.774999618530273 19.253000259399414,-41.382999420166016 0.0010000000474974513,-41.382999420166016z"></path><path stroke-linecap="round" stroke-linejoin="round" fill-opacity="0" stroke="rgb(52,90,121)" stroke-opacity="1" stroke-width="0.5" d=" M0.0010000000474974513,-41.382999420166016 C-19.250999450683594,-41.382999420166016 -34.85900115966797,-25.774999618530273 -34.85900115966797,-6.5229997634887695 C-34.85900115966797,6.860000133514404 -27.31100082397461,18.474000930786133 -16.2450008392334,24.315000534057617 C-14.321000099182129,27.797000885009766 -12.081999778747559,33.56700134277344 -12.234000205993652,41.382999420166016 C-12.234000205993652,41.382999420166016 12.206000328063965,39.72700119018555 12.206000328063965,39.72700119018555 C12.218000411987305,39.72700119018555 12.229999542236328,39.729000091552734 12.241999626159668,39.729000091552734 C12.406999588012695,32.75 14.461999893188477,27.547000885009766 16.246999740600586,24.315000534057617 C27.312000274658203,18.474000930786133 34.85900115966797,6.860000133514404 34.85900115966797,-6.5229997634887695 C34.85900115966797,-25.774999618530273 19.253000259399414,-41.382999420166016 0.0010000000474974513,-41.382999420166016z"></path></g><g opacity="1" transform="matrix(1,0,0,1,36.13800048828125,87.51599884033203)"><path stroke-linecap="butt" stroke-linejoin="miter" fill-opacity="0" stroke-miterlimit="10" stroke="rgb(52,90,121)" stroke-opacity="1" stroke-width="0.5" d=" M13.321000099182129,-0.9039999842643738 C13.359999656677246,-0.3269999921321869 12.925000190734863,0.17399999499320984 12.347000122070312,0.21299999952316284 C12.347000122070312,0.21299999952316284 -12.206000328063965,1.875 -12.206000328063965,1.875 C-12.782999992370605,1.9160000085830688 -13.282999992370605,1.4789999723434448 -13.321999549865723,0.9020000100135803 C-13.359999656677246,0.32600000500679016 -12.923999786376953,-0.17399999499320984 -12.347000122070312,-0.21199999749660492 C-12.347000122070312,-0.21199999749660492 12.204999923706055,-1.878000020980835 12.204999923706055,-1.878000020980835 C12.781999588012695,-1.9160000085830688 13.281999588012695,-1.4800000190734863 13.321000099182129,-0.9039999842643738z"></path></g><g opacity="1" transform="matrix(1,0,0,1,36.13800048828125,90.23799896240234)"><path stroke-linecap="butt" stroke-linejoin="miter" fill-opacity="0" stroke-miterlimit="10" stroke="rgb(52,90,121)" stroke-opacity="1" stroke-width="0.5" d=" M13.321000099182129,-0.9039999842643738 C13.359999656677246,-0.3269999921321869 12.925000190734863,0.17399999499320984 12.347000122070312,0.21299999952316284 C12.347000122070312,0.21299999952316284 -12.206000328063965,1.875 -12.206000328063965,1.875 C-12.782999992370605,1.9160000085830688 -13.282999992370605,1.4789999723434448 -13.321999549865723,0.9020000100135803 C-13.359999656677246,0.32600000500679016 -12.923999786376953,-0.17399999499320984 -12.347000122070312,-0.21199999749660492 C-12.347000122070312,-0.21199999749660492 12.204999923706055,-1.878000020980835 12.204999923706055,-1.878000020980835 C12.781999588012695,-1.9160000085830688 13.281999588012695,-1.4800000190734863 13.321000099182129,-0.9039999842643738z"></path></g><g opacity="1" transform="matrix(1,0,0,1,36.13800048828125,92.95999908447266)"><path stroke-linecap="butt" stroke-linejoin="miter" fill-opacity="0" stroke-miterlimit="10" stroke="rgb(52,90,121)" stroke-opacity="1" stroke-width="0.5" d=" M13.321000099182129,-0.9039999842643738 C13.359999656677246,-0.3269999921321869 12.925000190734863,0.17399999499320984 12.347000122070312,0.21299999952316284 C12.347000122070312,0.21299999952316284 -12.206000328063965,1.875 -12.206000328063965,1.875 C-12.782999992370605,1.9160000085830688 -13.282999992370605,1.4789999723434448 -13.321999549865723,0.9020000100135803 C-13.359999656677246,0.32600000500679016 -12.923999786376953,-0.17499999701976776 -12.347000122070312,-0.21400000154972076 C-12.347000122070312,-0.21400000154972076 12.204999923706055,-1.878000020980835 12.204999923706055,-1.878000020980835 C12.781999588012695,-1.9160000085830688 13.281999588012695,-1.4800000190734863 13.321000099182129,-0.9039999842643738z"></path></g><g opacity="1" transform="matrix(1,0,0,1,36.40399932861328,99.87100219726562)"><path stroke-linecap="round" stroke-linejoin="round" fill-opacity="0" stroke="rgb(52,90,121)" stroke-opacity="1" stroke-width="0.5" d=" M-10.552000045776367,-4.578999996185303 C-9.36400032043457,-2.4609999656677246 -8.175999641418457,-0.34299999475479126 -6.986999988555908,1.774999976158142 C-6.986999988555908,1.774999976158142 -5.672999858856201,1.774999976158142 -5.672999858856201,1.774999976158142 C-5.005000114440918,4.171999931335449 -3.0230000019073486,5.910999774932861 -0.6790000200271606,5.910999774932861 C1.6629999876022339,5.910999774932861 3.6459999084472656,4.171999931335449 4.314000129699707,1.774999976158142 C4.314000129699707,1.774999976158142 5.783999919891357,1.774999976158142 5.783999919891357,1.774999976158142 C7.373000144958496,-0.7870000004768372 8.961999893188477,-3.3480000495910645 10.552000045776367,-5.910999774932861 C3.5169999599456787,-5.466000080108643 -3.5169999599456787,-5.0229997634887695 -10.552000045776367,-4.578999996185303z"></path></g><g opacity="1" transform="matrix(1,0,0,1,37.02199935913086,59.49800109863281)"><path stroke-linecap="round" stroke-linejoin="round" fill-opacity="0" stroke="rgb(52,90,121)" stroke-opacity="1" stroke-width="0.5" d=" M2.9779999256134033,23.22800064086914 C2.9719998836517334,14.619000434875488 3.691999912261963,7.327000141143799 4.642000198364258,1.75 C5.849999904632568,-5.335000038146973 8.076000213623047,-12.34000015258789 12.020000457763672,-18.361000061035156 C12.619999885559082,-19.274999618530273 13.295000076293945,-20.198999404907227 14.272000312805176,-20.69700050354004 C15.24899959564209,-21.19499969482422 17.261999130249023,-21.839000701904297 17.97100067138672,-21.006999969482422 C19.22100067138672,-19.538999557495117 17.68199920654297,-18.187000274658203 17.025999069213867,-17.381999969482422 C16.371000289916992,-16.57699966430664 15.383999824523926,-16.1200008392334 14.411999702453613,-15.746999740600586 C12.293000221252441,-14.9350004196167 9.99899959564209,-14.390000343322754 7.754000186920166,-14.732999801635742 C5.507999897003174,-15.076000213623047 3.325000047683716,-16.44700050354004 2.503000020980835,-18.55299949645996 C2.1610000133514404,-19.429000854492188 2.0739998817443848,-20.447999954223633 2.492000102996826,-21.290000915527344 C2.9089999198913574,-22.131999969482422 4.324999809265137,-23.389999389648438 5.230999946594238,-23.125999450683594 C6.553999900817871,-22.742000579833984 6.47599983215332,-20.273000717163086 6.025000095367432,-18.97800064086914 C5.24399995803833,-16.736000061035156 2.8389999866485596,-15.220999717712402 0.45500001311302185,-15.309000015258789 C-2.2660000324249268,-15.40999984741211 -4.349999904632568,-17.242000579833984 -5.15500020980835,-19.131999969482422 C-5.739999771118164,-20.503999710083008 -6.002999782562256,-22.684999465942383 -5.0269999504089355,-23.441999435424805 C-4.794000148773193,-23.62299919128418 -4.302999973297119,-23.86199951171875 -3.6989998817443848,-23.86199951171875 C-1.8209999799728394,-23.86199951171875 -1.7050000429153442,-22.06100082397461 -1.784000039100647,-20.908000946044922 C-1.8639999628067017,-19.7549991607666 -2.6429998874664307,-18.766000747680664 -3.51200008392334,-18 C-7.349999904632568,-14.616999626159668 -13.699999809265137,-14.531000137329102 -17.628999710083008,-17.808000564575195 C-18.632999420166016,-18.645000457763672 -19.22100067138672,-19.003999710083008 -19.113000869750977,-21.16699981689453 C-19.065000534057617,-22.117000579833984 -17.816999435424805,-22.618999481201172 -16.86199951171875,-22.636999130249023 C-15.906999588012695,-22.6560001373291 -14.991000175476074,-22.22599983215332 -14.22700023651123,-21.6560001373291 C-12.086000442504883,-20.06100082397461 -10.97599983215332,-17.466999053955078 -10.10200023651123,-14.95300006866455 C-5.789000034332275,-2.5450000762939453 -4.980999946594238,10.755000114440918 -4.210999965667725,23.86199951171875"></path></g></g><g transform="matrix(1,0,0,1,291.99188232421875,280.03045654296875)" opacity="1" style="display: block;"><g opacity="1" transform="matrix(1,0,0,1,38.81100082397461,45.20000076293945)"><path fill="rgb(255,254,255)" fill-opacity="1" d=" M21.916000366210938,6.651000022888184 C21.916000366210938,18.7549991607666 12.104000091552734,28.56599998474121 0.0010000000474974513,28.56599998474121 C-12.102999687194824,28.56599998474121 -21.916000366210938,18.7549991607666 -21.916000366210938,6.651000022888184 C-21.916000366210938,-5.453000068664551 -2.2160000801086426,-28.56599998474121 -0.4429999887943268,-28.12299919128418 C3.428999900817871,-27.155000686645508 21.916000366210938,-5.453000068664551 21.916000366210938,6.651000022888184z"></path><path stroke-linecap="round" stroke-linejoin="round" fill-opacity="0" stroke="rgb(52,90,121)" stroke-opacity="1" stroke-width="0.537" d=" M21.916000366210938,6.651000022888184 C21.916000366210938,18.7549991607666 12.104000091552734,28.56599998474121 0.0010000000474974513,28.56599998474121 C-12.102999687194824,28.56599998474121 -21.916000366210938,18.7549991607666 -21.916000366210938,6.651000022888184 C-21.916000366210938,-5.453000068664551 -2.2160000801086426,-28.56599998474121 -0.4429999887943268,-28.12299919128418 C3.428999900817871,-27.155000686645508 21.916000366210938,-5.453000068664551 21.916000366210938,6.651000022888184z"></path></g><g opacity="1" transform="matrix(1,0,0,1,66.4280014038086,14.954999923706055)"><path fill="rgb(0,130,195)" fill-opacity="1" d=" M10.515000343322754,3.190999984741211 C10.515000343322754,8.998000144958496 5.808000087738037,13.704999923706055 0.0010000000474974513,13.704999923706055 C-5.806000232696533,13.704999923706055 -10.515000343322754,8.998000144958496 -10.515000343322754,3.190999984741211 C-10.515000343322754,-2.615999937057495 -1.0640000104904175,-13.704999923706055 -0.21299999952316284,-13.491999626159668 C1.6440000534057617,-13.027999877929688 10.515000343322754,-2.615999937057495 10.515000343322754,3.190999984741211z"></path><path stroke-linecap="round" stroke-linejoin="round" fill-opacity="0" stroke="rgb(52,90,121)" stroke-opacity="1" stroke-width="0.5" d=" M10.515000343322754,3.190999984741211 C10.515000343322754,8.998000144958496 5.808000087738037,13.704999923706055 0.0010000000474974513,13.704999923706055 C-5.806000232696533,13.704999923706055 -10.515000343322754,8.998000144958496 -10.515000343322754,3.190999984741211 C-10.515000343322754,-2.615999937057495 -1.0640000104904175,-13.704999923706055 -0.21299999952316284,-13.491999626159668 C1.6440000534057617,-13.027999877929688 10.515000343322754,-2.615999937057495 10.515000343322754,3.190999984741211z"></path></g><g opacity="1" transform="matrix(1,0,0,1,11.763999938964844,15.199000358581543)"><path fill="rgb(195,212,226)" fill-opacity="1" d=" M10.515000343322754,3.190999984741211 C10.515000343322754,8.998000144958496 5.808000087738037,13.704999923706055 0.0010000000474974513,13.704999923706055 C-5.806000232696533,13.704999923706055 -10.515000343322754,8.998000144958496 -10.515000343322754,3.190999984741211 C-10.515000343322754,-2.615999937057495 -1.0640000104904175,-13.704999923706055 -0.21299999952316284,-13.491999626159668 C1.6440000534057617,-13.027999877929688 10.515000343322754,-2.615999937057495 10.515000343322754,3.190999984741211z"></path><path stroke-linecap="round" stroke-linejoin="round" fill-opacity="0" stroke="rgb(52,90,121)" stroke-opacity="1" stroke-width="0.5" d=" M10.515000343322754,3.190999984741211 C10.515000343322754,8.998000144958496 5.808000087738037,13.704999923706055 0.0010000000474974513,13.704999923706055 C-5.806000232696533,13.704999923706055 -10.515000343322754,8.998000144958496 -10.515000343322754,3.190999984741211 C-10.515000343322754,-2.615999937057495 -1.0640000104904175,-13.704999923706055 -0.21299999952316284,-13.491999626159668 C1.6440000534057617,-13.027999877929688 10.515000343322754,-2.615999937057495 10.515000343322754,3.190999984741211z"></path></g></g></g></g></svg>
